<?xml version="1.0" encoding="UTF-8" standalone="no"?>
<!DOCTYPE svg PUBLIC "-//W3C//DTD SVG 1.1//EN"
 "http://www.w3.org/Graphics/SVG/1.1/DTD/svg11.dtd">
<!-- Generated by graphviz version 2.47.0 (20210316.0004)
 -->
<!-- Title: dependencies Pages: 1 -->
<svg width="970pt" height="284pt"
 viewBox="0.00 0.00 970.00 284.00" xmlns="http://www.w3.org/2000/svg" xmlns:xlink="http://www.w3.org/1999/xlink">
<g id="graph0" class="graph" transform="scale(1 1) rotate(0) translate(4 280)">
<title>dependencies</title>
<polygon fill="white" stroke="transparent" points="-4,4 -4,-280 966,-280 966,4 -4,4"/>
<text text-anchor="start" x="460.01" y="-42.4" font-family="Times-12" font-weight="bold" font-size="14.00">Legend</text>
<polygon fill="#ffffb3" stroke="transparent" points="247,-10 247,-30 267,-30 267,-10 247,-10"/>
<text text-anchor="start" x="270.63" y="-15.4" font-family="Times-12" font-size="14.00"> &#160;Declarations</text>
<polygon fill="#8dd3c7" stroke="transparent" points="360,-10 360,-30 380,-30 380,-10 360,-10"/>
<text text-anchor="start" x="383.73" y="-15.4" font-family="Times-12" font-size="14.00"> &#160;Module</text>
<polygon fill="#80b1d3" stroke="transparent" points="446,-10 446,-30 466,-30 466,-10 446,-10"/>
<text text-anchor="start" x="469.78" y="-15.4" font-family="Times-12" font-size="14.00"> &#160;Bootstrap</text>
<polygon fill="#fdb462" stroke="transparent" points="543,-10 543,-30 563,-30 563,-10 543,-10"/>
<text text-anchor="start" x="566.67" y="-15.4" font-family="Times-12" font-size="14.00"> &#160;Providers</text>
<polygon fill="#fb8072" stroke="transparent" points="639,-10 639,-30 659,-30 659,-10 639,-10"/>
<text text-anchor="start" x="662.73" y="-15.4" font-family="Times-12" font-size="14.00"> &#160;Exports</text>
<g id="clust1" class="cluster">
<title>cluster_AuthModule</title>
<polygon fill="none" stroke="black" stroke-dasharray="1,5" points="8,-70 8,-268 954,-268 954,-70 8,-70"/>
</g>
<g id="clust3" class="cluster">
<title>cluster_AuthModule_imports</title>
<polygon fill="none" stroke="black" points="728,-78 728,-130 946,-130 946,-78 728,-78"/>
</g>
<g id="clust4" class="cluster">
<title>cluster_AuthModule_exports</title>
<polygon fill="none" stroke="black" points="516,-208 516,-260 622,-260 622,-208 516,-208"/>
</g>
<g id="clust6" class="cluster">
<title>cluster_AuthModule_providers</title>
<polygon fill="none" stroke="black" points="16,-78 16,-130 720,-130 720,-78 16,-78"/>
</g>
<!-- EmailModule -->
<g id="node1" class="node">
<title>EmailModule</title>
<polygon fill="#8dd3c7" stroke="black" points="938.49,-122 935.49,-126 914.49,-126 911.49,-122 845.51,-122 845.51,-86 938.49,-86 938.49,-122"/>
<text text-anchor="middle" x="892" y="-99.8" font-family="Times,serif" font-size="14.00">EmailModule</text>
</g>
<!-- AuthModule -->
<g id="node3" class="node">
<title>AuthModule</title>
<polygon fill="#8dd3c7" stroke="black" points="612.55,-187 609.55,-191 588.55,-191 585.55,-187 525.45,-187 525.45,-151 612.55,-151 612.55,-187"/>
<text text-anchor="middle" x="569" y="-164.8" font-family="Times,serif" font-size="14.00">AuthModule</text>
</g>
<!-- EmailModule&#45;&gt;AuthModule -->
<g id="edge1" class="edge">
<title>EmailModule&#45;&gt;AuthModule</title>
<path fill="none" stroke="black" d="M892,-122.28C892,-143.32 892,-175 892,-175 892,-175 622.56,-175 622.56,-175"/>
<polygon fill="black" stroke="black" points="622.56,-171.5 612.56,-175 622.56,-178.5 622.56,-171.5"/>
</g>
<!-- RedisModule -->
<g id="node2" class="node">
<title>RedisModule</title>
<polygon fill="#8dd3c7" stroke="black" points="827.94,-122 824.94,-126 803.94,-126 800.94,-122 736.06,-122 736.06,-86 827.94,-86 827.94,-122"/>
<text text-anchor="middle" x="782" y="-99.8" font-family="Times,serif" font-size="14.00">RedisModule</text>
</g>
<!-- RedisModule&#45;&gt;AuthModule -->
<g id="edge2" class="edge">
<title>RedisModule&#45;&gt;AuthModule</title>
<path fill="none" stroke="black" d="M782,-122.02C782,-139.37 782,-163 782,-163 782,-163 622.62,-163 622.62,-163"/>
<polygon fill="black" stroke="black" points="622.62,-159.5 612.62,-163 622.62,-166.5 622.62,-159.5"/>
</g>
<!-- AuthService  -->
<g id="node4" class="node">
<title>AuthService </title>
<polygon fill="#fb8072" stroke="black" points="613.98,-252 524.02,-252 524.02,-216 613.98,-216 613.98,-252"/>
<text text-anchor="middle" x="569" y="-229.8" font-family="Times,serif" font-size="14.00">AuthService </text>
</g>
<!-- AuthModule&#45;&gt;AuthService  -->
<g id="edge3" class="edge">
<title>AuthModule&#45;&gt;AuthService </title>
<path fill="none" stroke="black" stroke-dasharray="5,2" d="M569,-187.11C569,-187.11 569,-205.99 569,-205.99"/>
<polygon fill="black" stroke="black" points="565.5,-205.99 569,-215.99 572.5,-205.99 565.5,-205.99"/>
</g>
<!-- AuthService -->
<g id="node5" class="node">
<title>AuthService</title>
<ellipse fill="#fdb462" stroke="black" cx="653" cy="-104" rx="59.11" ry="18"/>
<text text-anchor="middle" x="653" y="-99.8" font-family="Times,serif" font-size="14.00">AuthService</text>
</g>
<!-- AuthService&#45;&gt;AuthModule -->
<g id="edge4" class="edge">
<title>AuthService&#45;&gt;AuthModule</title>
<path fill="none" stroke="black" d="M603.23,-113.87C603.23,-113.87 603.23,-140.91 603.23,-140.91"/>
<polygon fill="black" stroke="black" points="599.73,-140.91 603.23,-150.91 606.73,-140.91 599.73,-140.91"/>
</g>
<!-- GoogleUserStrategy -->
<g id="node6" class="node">
<title>GoogleUserStrategy</title>
<ellipse fill="#fdb462" stroke="black" cx="486" cy="-104" rx="89.75" ry="18"/>
<text text-anchor="middle" x="486" y="-99.8" font-family="Times,serif" font-size="14.00">GoogleUserStrategy</text>
</g>
<!-- GoogleUserStrategy&#45;&gt;AuthModule -->
<g id="edge5" class="edge">
<title>GoogleUserStrategy&#45;&gt;AuthModule</title>
<path fill="none" stroke="black" d="M550.55,-116.53C550.55,-116.53 550.55,-140.85 550.55,-140.85"/>
<polygon fill="black" stroke="black" points="547.05,-140.85 550.55,-150.85 554.05,-140.85 547.05,-140.85"/>
</g>
<!-- LocalUserStrategy -->
<g id="node7" class="node">
<title>LocalUserStrategy</title>
<ellipse fill="#fdb462" stroke="black" cx="295" cy="-104" rx="83.36" ry="18"/>
<text text-anchor="middle" x="295" y="-99.8" font-family="Times,serif" font-size="14.00">LocalUserStrategy</text>
</g>
<!-- LocalUserStrategy&#45;&gt;AuthModule -->
<g id="edge6" class="edge">
<title>LocalUserStrategy&#45;&gt;AuthModule</title>
<path fill="none" stroke="black" d="M295,-122.02C295,-139.37 295,-163 295,-163 295,-163 515.28,-163 515.28,-163"/>
<polygon fill="black" stroke="black" points="515.28,-166.5 525.28,-163 515.28,-159.5 515.28,-166.5"/>
</g>
<!-- NaverUserStrategy -->
<g id="node8" class="node">
<title>NaverUserStrategy</title>
<ellipse fill="#fdb462" stroke="black" cx="109" cy="-104" rx="85.07" ry="18"/>
<text text-anchor="middle" x="109" y="-99.8" font-family="Times,serif" font-size="14.00">NaverUserStrategy</text>
</g>
<!-- NaverUserStrategy&#45;&gt;AuthModule -->
<g id="edge7" class="edge">
<title>NaverUserStrategy&#45;&gt;AuthModule</title>
<path fill="none" stroke="black" d="M109,-122.28C109,-143.32 109,-175 109,-175 109,-175 515.31,-175 515.31,-175"/>
<polygon fill="black" stroke="black" points="515.31,-178.5 525.31,-175 515.31,-171.5 515.31,-178.5"/>
</g>
</g>
</svg>
