<?xml version="1.0" encoding="UTF-8" standalone="no"?>
<!DOCTYPE svg PUBLIC "-//W3C//DTD SVG 1.1//EN"
 "http://www.w3.org/Graphics/SVG/1.1/DTD/svg11.dtd">
<!-- Generated by graphviz version 2.47.0 (20210316.0004)
 -->
<!-- Title: dependencies Pages: 1 -->
<svg width="2049pt" height="290pt"
 viewBox="0.00 0.00 2049.00 290.00" xmlns="http://www.w3.org/2000/svg" xmlns:xlink="http://www.w3.org/1999/xlink">
<g id="graph0" class="graph" transform="scale(1 1) rotate(0) translate(4 286)">
<title>dependencies</title>
<polygon fill="white" stroke="transparent" points="-4,4 -4,-286 2045,-286 2045,4 -4,4"/>
<text text-anchor="start" x="999.51" y="-42.4" font-family="Times-12" font-weight="bold" font-size="14.00">Legend</text>
<polygon fill="#ffffb3" stroke="transparent" points="786.5,-10 786.5,-30 806.5,-30 806.5,-10 786.5,-10"/>
<text text-anchor="start" x="810.13" y="-15.4" font-family="Times-12" font-size="14.00"> &#160;Declarations</text>
<polygon fill="#8dd3c7" stroke="transparent" points="899.5,-10 899.5,-30 919.5,-30 919.5,-10 899.5,-10"/>
<text text-anchor="start" x="923.23" y="-15.4" font-family="Times-12" font-size="14.00"> &#160;Module</text>
<polygon fill="#80b1d3" stroke="transparent" points="985.5,-10 985.5,-30 1005.5,-30 1005.5,-10 985.5,-10"/>
<text text-anchor="start" x="1009.28" y="-15.4" font-family="Times-12" font-size="14.00"> &#160;Bootstrap</text>
<polygon fill="#fdb462" stroke="transparent" points="1082.5,-10 1082.5,-30 1102.5,-30 1102.5,-10 1082.5,-10"/>
<text text-anchor="start" x="1106.17" y="-15.4" font-family="Times-12" font-size="14.00"> &#160;Providers</text>
<polygon fill="#fb8072" stroke="transparent" points="1178.5,-10 1178.5,-30 1198.5,-30 1198.5,-10 1178.5,-10"/>
<text text-anchor="start" x="1202.23" y="-15.4" font-family="Times-12" font-size="14.00"> &#160;Exports</text>
<g id="clust7" class="cluster">
<title>cluster_AppModule</title>
<polygon fill="none" stroke="black" stroke-dasharray="1,5" points="8,-70 8,-198 753,-198 753,-70 8,-70"/>
</g>
<g id="clust9" class="cluster">
<title>cluster_AppModule_imports</title>
<polygon fill="none" stroke="black" points="154,-78 154,-130 745,-130 745,-78 154,-78"/>
</g>
<g id="clust12" class="cluster">
<title>cluster_AppModule_providers</title>
<polygon fill="none" stroke="black" points="16,-78 16,-130 146,-130 146,-78 16,-78"/>
</g>
<g id="clust13" class="cluster">
<title>cluster_AuthModule</title>
<polygon fill="none" stroke="black" stroke-dasharray="1,5" points="1313,-70 1313,-274 2033,-274 2033,-70 1313,-70"/>
</g>
<g id="clust16" class="cluster">
<title>cluster_AuthModule_exports</title>
<polygon fill="none" stroke="black" points="1361,-214 1361,-266 1467,-266 1467,-214 1361,-214"/>
</g>
<g id="clust18" class="cluster">
<title>cluster_AuthModule_providers</title>
<polygon fill="none" stroke="black" points="1321,-78 1321,-130 2025,-130 2025,-78 1321,-78"/>
</g>
<g id="clust25" class="cluster">
<title>cluster_EmailModule</title>
<polygon fill="none" stroke="black" stroke-dasharray="1,5" points="761,-138 761,-206 1037,-206 1037,-138 761,-138"/>
</g>
<g id="clust28" class="cluster">
<title>cluster_EmailModule_exports</title>
<polygon fill="none" stroke="black" points="919,-146 919,-198 1029,-198 1029,-146 919,-146"/>
</g>
<g id="clust30" class="cluster">
<title>cluster_EmailModule_providers</title>
<polygon fill="none" stroke="black" points="769,-146 769,-198 911,-198 911,-146 769,-146"/>
</g>
<g id="clust37" class="cluster">
<title>cluster_UserModule</title>
<polygon fill="none" stroke="black" stroke-dasharray="1,5" points="1045,-138 1045,-206 1305,-206 1305,-138 1045,-138"/>
</g>
<g id="clust40" class="cluster">
<title>cluster_UserModule_exports</title>
<polygon fill="none" stroke="black" points="1193,-146 1193,-198 1297,-198 1297,-146 1193,-146"/>
</g>
<g id="clust42" class="cluster">
<title>cluster_UserModule_providers</title>
<polygon fill="none" stroke="black" points="1053,-146 1053,-198 1185,-198 1185,-146 1053,-146"/>
</g>
<!-- AppConfigModule -->
<g id="node1" class="node">
<title>AppConfigModule</title>
<polygon fill="#8dd3c7" stroke="black" points="413.05,-122 410.05,-126 389.05,-126 386.05,-122 290.95,-122 290.95,-86 413.05,-86 413.05,-122"/>
<text text-anchor="middle" x="352" y="-99.8" font-family="Times,serif" font-size="14.00">AppConfigModule</text>
</g>
<!-- AppModule -->
<g id="node6" class="node">
<title>AppModule</title>
<polygon fill="#8dd3c7" stroke="black" points="455.66,-190 452.66,-194 431.66,-194 428.66,-190 372.34,-190 372.34,-154 455.66,-154 455.66,-190"/>
<text text-anchor="middle" x="414" y="-167.8" font-family="Times,serif" font-size="14.00">AppModule</text>
</g>
<!-- AppConfigModule&#45;&gt;AppModule -->
<g id="edge1" class="edge">
<title>AppConfigModule&#45;&gt;AppModule</title>
<path fill="none" stroke="black" d="M392.72,-122.22C392.72,-122.22 392.72,-143.73 392.72,-143.73"/>
<polygon fill="black" stroke="black" points="389.22,-143.73 392.72,-153.73 396.22,-143.73 389.22,-143.73"/>
</g>
<!-- DatabaseModule -->
<g id="node2" class="node">
<title>DatabaseModule</title>
<polygon fill="#8dd3c7" stroke="black" points="272.35,-122 269.35,-126 248.35,-126 245.35,-122 161.65,-122 161.65,-86 272.35,-86 272.35,-122"/>
<text text-anchor="middle" x="217" y="-99.8" font-family="Times,serif" font-size="14.00">DatabaseModule</text>
</g>
<!-- DatabaseModule&#45;&gt;AppModule -->
<g id="edge2" class="edge">
<title>DatabaseModule&#45;&gt;AppModule</title>
<path fill="none" stroke="black" d="M217,-122.27C217,-140.56 217,-166 217,-166 217,-166 362.22,-166 362.22,-166"/>
<polygon fill="black" stroke="black" points="362.22,-169.5 372.22,-166 362.22,-162.5 362.22,-169.5"/>
</g>
<!-- EmailModule -->
<g id="node3" class="node">
<title>EmailModule</title>
<polygon fill="#8dd3c7" stroke="black" points="633.49,-122 630.49,-126 609.49,-126 606.49,-122 540.51,-122 540.51,-86 633.49,-86 633.49,-122"/>
<text text-anchor="middle" x="587" y="-99.8" font-family="Times,serif" font-size="14.00">EmailModule</text>
</g>
<!-- EmailModule&#45;&gt;AppModule -->
<g id="edge3" class="edge">
<title>EmailModule&#45;&gt;AppModule</title>
<path fill="none" stroke="black" d="M596.3,-122.22C596.3,-142.37 596.3,-172 596.3,-172 596.3,-172 465.82,-172 465.82,-172"/>
<polygon fill="black" stroke="black" points="465.82,-168.5 455.82,-172 465.82,-175.5 465.82,-168.5"/>
</g>
<!-- AuthModule -->
<g id="node8" class="node">
<title>AuthModule</title>
<polygon fill="#8dd3c7" stroke="black" points="1457.55,-190 1454.55,-194 1433.55,-194 1430.55,-190 1370.45,-190 1370.45,-154 1457.55,-154 1457.55,-190"/>
<text text-anchor="middle" x="1414" y="-167.8" font-family="Times,serif" font-size="14.00">AuthModule</text>
</g>
<!-- EmailModule&#45;&gt;AuthModule -->
<g id="edge7" class="edge">
<title>EmailModule&#45;&gt;AuthModule</title>
<path fill="none" stroke="black" d="M577.7,-122.06C577.7,-126.49 577.7,-130 577.7,-130 577.7,-130 1414,-130 1414,-130 1414,-130 1414,-143.94 1414,-143.94"/>
<polygon fill="black" stroke="black" points="1410.5,-143.94 1414,-153.94 1417.5,-143.94 1410.5,-143.94"/>
</g>
<!-- EmailService  -->
<g id="node14" class="node">
<title>EmailService </title>
<polygon fill="#fb8072" stroke="black" points="1021.42,-190 926.58,-190 926.58,-154 1021.42,-154 1021.42,-190"/>
<text text-anchor="middle" x="974" y="-167.8" font-family="Times,serif" font-size="14.00">EmailService </text>
</g>
<!-- EmailModule&#45;&gt;EmailService  -->
<g id="edge14" class="edge">
<title>EmailModule&#45;&gt;EmailService </title>
<path fill="none" stroke="black" stroke-dasharray="5,2" d="M559.1,-122.06C559.1,-133.44 559.1,-146 559.1,-146 559.1,-146 974,-146 974,-146 974,-146 974,-146.79 974,-146.79"/>
<polygon fill="black" stroke="black" points="970.5,-143.94 974,-153.94 977.5,-143.94 970.5,-143.94"/>
</g>
<!-- RedisModule -->
<g id="node4" class="node">
<title>RedisModule</title>
<polygon fill="#8dd3c7" stroke="black" points="522.94,-122 519.94,-126 498.94,-126 495.94,-122 431.06,-122 431.06,-86 522.94,-86 522.94,-122"/>
<text text-anchor="middle" x="477" y="-99.8" font-family="Times,serif" font-size="14.00">RedisModule</text>
</g>
<!-- RedisModule&#45;&gt;AppModule -->
<g id="edge4" class="edge">
<title>RedisModule&#45;&gt;AppModule</title>
<path fill="none" stroke="black" d="M443.56,-122.22C443.56,-122.22 443.56,-143.73 443.56,-143.73"/>
<polygon fill="black" stroke="black" points="440.06,-143.73 443.56,-153.73 447.06,-143.73 440.06,-143.73"/>
</g>
<!-- RedisModule&#45;&gt;AuthModule -->
<g id="edge8" class="edge">
<title>RedisModule&#45;&gt;AuthModule</title>
<path fill="none" stroke="black" d="M489.27,-122.19C489.27,-130.28 489.27,-138 489.27,-138 489.27,-138 1392.11,-138 1392.11,-138 1392.11,-138 1392.11,-143.81 1392.11,-143.81"/>
<polygon fill="black" stroke="black" points="1388.61,-143.81 1392.11,-153.81 1395.61,-143.81 1388.61,-143.81"/>
</g>
<!-- UserModule -->
<g id="node5" class="node">
<title>UserModule</title>
<polygon fill="#8dd3c7" stroke="black" points="736.98,-122 733.98,-126 712.98,-126 709.98,-122 651.02,-122 651.02,-86 736.98,-86 736.98,-122"/>
<text text-anchor="middle" x="694" y="-99.8" font-family="Times,serif" font-size="14.00">UserModule</text>
</g>
<!-- UserModule&#45;&gt;AppModule -->
<g id="edge5" class="edge">
<title>UserModule&#45;&gt;AppModule</title>
<path fill="none" stroke="black" d="M694,-122.25C694,-145.02 694,-181 694,-181 694,-181 465.92,-181 465.92,-181"/>
<polygon fill="black" stroke="black" points="465.92,-177.5 455.92,-181 465.92,-184.5 465.92,-177.5"/>
</g>
<!-- UserService  -->
<g id="node16" class="node">
<title>UserService </title>
<polygon fill="#fb8072" stroke="black" points="1288.9,-190 1201.1,-190 1201.1,-154 1288.9,-154 1288.9,-190"/>
<text text-anchor="middle" x="1245" y="-167.8" font-family="Times,serif" font-size="14.00">UserService </text>
</g>
<!-- UserModule&#45;&gt;UserService  -->
<g id="edge17" class="edge">
<title>UserModule&#45;&gt;UserService </title>
<path fill="none" stroke="black" stroke-dasharray="5,2" d="M737.24,-104C867.13,-104 1245,-104 1245,-104 1245,-104 1245,-143.78 1245,-143.78"/>
<polygon fill="black" stroke="black" points="1241.5,-143.78 1245,-153.78 1248.5,-143.78 1241.5,-143.78"/>
</g>
<!-- AppService -->
<g id="node7" class="node">
<title>AppService</title>
<ellipse fill="#fdb462" stroke="black" cx="81" cy="-104" rx="56.74" ry="18"/>
<text text-anchor="middle" x="81" y="-99.8" font-family="Times,serif" font-size="14.00">AppService</text>
</g>
<!-- AppService&#45;&gt;AppModule -->
<g id="edge6" class="edge">
<title>AppService&#45;&gt;AppModule</title>
<path fill="none" stroke="black" d="M81,-122.29C81,-144.21 81,-178 81,-178 81,-178 362.16,-178 362.16,-178"/>
<polygon fill="black" stroke="black" points="362.16,-181.5 372.16,-178 362.16,-174.5 362.16,-181.5"/>
</g>
<!-- AuthModule&#45;&gt;UserModule -->
<g id="edge16" class="edge">
<title>AuthModule&#45;&gt;UserModule</title>
<path fill="none" stroke="black" d="M1370.37,-172C1341.51,-172 1308.96,-172 1308.96,-172 1308.96,-172 1308.96,-95 1308.96,-95 1308.96,-95 747.24,-95 747.24,-95"/>
<polygon fill="black" stroke="black" points="747.24,-91.5 737.24,-95 747.24,-98.5 747.24,-91.5"/>
</g>
<!-- AuthService  -->
<g id="node9" class="node">
<title>AuthService </title>
<polygon fill="#fb8072" stroke="black" points="1458.98,-258 1369.02,-258 1369.02,-222 1458.98,-222 1458.98,-258"/>
<text text-anchor="middle" x="1414" y="-235.8" font-family="Times,serif" font-size="14.00">AuthService </text>
</g>
<!-- AuthModule&#45;&gt;AuthService  -->
<g id="edge9" class="edge">
<title>AuthModule&#45;&gt;AuthService </title>
<path fill="none" stroke="black" stroke-dasharray="5,2" d="M1414,-190.22C1414,-190.22 1414,-211.73 1414,-211.73"/>
<polygon fill="black" stroke="black" points="1410.5,-211.73 1414,-221.73 1417.5,-211.73 1410.5,-211.73"/>
</g>
<!-- AuthService -->
<g id="node10" class="node">
<title>AuthService</title>
<ellipse fill="#fdb462" stroke="black" cx="1958" cy="-104" rx="59.11" ry="18"/>
<text text-anchor="middle" x="1958" y="-99.8" font-family="Times,serif" font-size="14.00">AuthService</text>
</g>
<!-- AuthService&#45;&gt;AuthModule -->
<g id="edge10" class="edge">
<title>AuthService&#45;&gt;AuthModule</title>
<path fill="none" stroke="black" d="M1958,-122.25C1958,-145.02 1958,-181 1958,-181 1958,-181 1467.6,-181 1467.6,-181"/>
<polygon fill="black" stroke="black" points="1467.6,-177.5 1457.6,-181 1467.6,-184.5 1467.6,-177.5"/>
</g>
<!-- GoogleUserStrategy -->
<g id="node11" class="node">
<title>GoogleUserStrategy</title>
<ellipse fill="#fdb462" stroke="black" cx="1791" cy="-104" rx="89.75" ry="18"/>
<text text-anchor="middle" x="1791" y="-99.8" font-family="Times,serif" font-size="14.00">GoogleUserStrategy</text>
</g>
<!-- GoogleUserStrategy&#45;&gt;AuthModule -->
<g id="edge11" class="edge">
<title>GoogleUserStrategy&#45;&gt;AuthModule</title>
<path fill="none" stroke="black" d="M1791,-122.22C1791,-142.37 1791,-172 1791,-172 1791,-172 1467.61,-172 1467.61,-172"/>
<polygon fill="black" stroke="black" points="1467.62,-168.5 1457.61,-172 1467.61,-175.5 1467.62,-168.5"/>
</g>
<!-- LocalUserStrategy -->
<g id="node12" class="node">
<title>LocalUserStrategy</title>
<ellipse fill="#fdb462" stroke="black" cx="1600" cy="-104" rx="83.36" ry="18"/>
<text text-anchor="middle" x="1600" y="-99.8" font-family="Times,serif" font-size="14.00">LocalUserStrategy</text>
</g>
<!-- LocalUserStrategy&#45;&gt;AuthModule -->
<g id="edge12" class="edge">
<title>LocalUserStrategy&#45;&gt;AuthModule</title>
<path fill="none" stroke="black" d="M1600,-122.02C1600,-139.37 1600,-163 1600,-163 1600,-163 1467.61,-163 1467.61,-163"/>
<polygon fill="black" stroke="black" points="1467.61,-159.5 1457.61,-163 1467.61,-166.5 1467.61,-159.5"/>
</g>
<!-- NaverUserStrategy -->
<g id="node13" class="node">
<title>NaverUserStrategy</title>
<ellipse fill="#fdb462" stroke="black" cx="1414" cy="-104" rx="85.07" ry="18"/>
<text text-anchor="middle" x="1414" y="-99.8" font-family="Times,serif" font-size="14.00">NaverUserStrategy</text>
</g>
<!-- NaverUserStrategy&#45;&gt;AuthModule -->
<g id="edge13" class="edge">
<title>NaverUserStrategy&#45;&gt;AuthModule</title>
<path fill="none" stroke="black" d="M1435.89,-121.51C1435.89,-121.51 1435.89,-143.84 1435.89,-143.84"/>
<polygon fill="black" stroke="black" points="1432.39,-143.84 1435.89,-153.84 1439.39,-143.84 1432.39,-143.84"/>
</g>
<!-- EmailService -->
<g id="node15" class="node">
<title>EmailService</title>
<ellipse fill="#fdb462" stroke="black" cx="840" cy="-172" rx="63.12" ry="18"/>
<text text-anchor="middle" x="840" y="-167.8" font-family="Times,serif" font-size="14.00">EmailService</text>
</g>
<!-- EmailService&#45;&gt;EmailModule -->
<g id="edge15" class="edge">
<title>EmailService&#45;&gt;EmailModule</title>
<path fill="none" stroke="black" d="M785.22,-163C718.59,-163 614.9,-163 614.9,-163 614.9,-163 614.9,-132.02 614.9,-132.02"/>
<polygon fill="black" stroke="black" points="618.4,-132.02 614.9,-122.02 611.4,-132.02 618.4,-132.02"/>
</g>
<!-- UserService -->
<g id="node17" class="node">
<title>UserService</title>
<ellipse fill="#fdb462" stroke="black" cx="1119" cy="-172" rx="58.44" ry="18"/>
<text text-anchor="middle" x="1119" y="-167.8" font-family="Times,serif" font-size="14.00">UserService</text>
</g>
<!-- UserService&#45;&gt;UserModule -->
<g id="edge18" class="edge">
<title>UserService&#45;&gt;UserModule</title>
<path fill="none" stroke="black" d="M1119,-153.98C1119,-136.63 1119,-113 1119,-113 1119,-113 747.09,-113 747.09,-113"/>
<polygon fill="black" stroke="black" points="747.09,-109.5 737.09,-113 747.09,-116.5 747.09,-109.5"/>
</g>
</g>
</svg>
